<svg width="30" height="31" viewBox="0 0 30 31" fill="none" xmlns="http://www.w3.org/2000/svg">
<path fill-rule="evenodd" clip-rule="evenodd" d="M15.1082 3.00516C21.9259 3.00516 27.4527 8.532 27.4527 15.3497C27.4527 22.1674 21.9259 27.6943 15.1082 27.6943C8.29045 27.6943 2.76361 22.1674 2.76361 15.3497C2.76361 8.532 8.29045 3.00516 15.1082 3.00516ZM15.1082 5.47409C9.65404 5.47409 5.23257 9.89557 5.23257 15.3497C5.23257 20.8039 9.65404 25.2254 15.1082 25.2254C20.5624 25.2254 24.9838 20.8039 24.9838 15.3497C24.9838 9.89557 20.5624 5.47409 15.1082 5.47409ZM15.1082 7.94299C15.7412 7.94299 16.263 8.41953 16.3343 9.03348L16.3426 9.17744V14.8384L18.45 16.9457C18.9321 17.4278 18.9321 18.2094 18.45 18.6915C18.005 19.1365 17.3048 19.1707 16.8205 18.7942L16.7042 18.6915L14.2353 16.2226C14.0424 16.0297 13.9199 15.7795 13.8844 15.512L13.8737 15.3497L13.8737 9.17744C13.8737 8.49567 14.4264 7.94299 15.1082 7.94299Z" fill="white"/>
</svg>
